<svg width="317" height="313" viewBox="0 0 317 313" fill="none" xmlns="http://www.w3.org/2000/svg">
<path d="M234.3 234.3C277.433 191.167 277.433 121.234 234.3 78.1003C191.166 34.9669 121.233 34.9669 78.0999 78.1003C34.9665 121.234 34.9665 191.167 78.0999 234.3C121.233 277.433 191.166 277.433 234.3 234.3Z" fill="#58606E"/>
<path d="M231.308 231.308C272.789 189.827 272.789 122.573 231.308 81.092C189.827 39.6109 122.573 39.6109 81.092 81.092C39.611 122.573 39.611 189.827 81.092 231.308C122.573 272.789 189.827 272.789 231.308 231.308Z" fill="#697485"/>
<path d="M191.818 130.61C205.532 149.697 200.704 176.627 181.034 190.76C161.365 204.893 134.301 200.877 120.587 181.79C106.873 162.703 111.7 135.773 131.37 121.64C151.041 107.507 178.104 111.523 191.818 130.61Z" fill="#58606E"/>
<path d="M186.57 182.66C201.181 165.882 199.424 140.437 182.646 125.826C165.868 111.215 140.423 112.972 125.812 129.75C111.201 146.528 112.958 171.973 129.736 186.584C146.514 201.195 171.959 199.438 186.57 182.66Z" fill="#A982B0"/>
<path d="M182.414 138.005C192.696 152.314 189.431 172.249 175.121 182.53C160.811 192.812 140.877 189.546 130.595 175.237C120.314 160.927 123.579 140.993 137.889 130.711C152.197 120.431 172.132 123.696 182.414 138.005Z" fill="#CCA5CB"/>
<path d="M158.8 154.334C159.831 155.768 159.504 157.767 158.069 158.797C156.634 159.828 154.636 159.501 153.605 158.066C152.574 156.632 152.902 154.633 154.336 153.602C155.771 152.572 157.769 152.9 158.8 154.334Z" fill="#D8E0E8"/>
<path d="M155.784 99.1891C158.01 99.2781 160.947 98.5411 161.531 96.6361C162.042 94.9721 160.323 93.4751 158.626 92.6471C156.928 91.8181 154.917 91.0921 154.189 89.5131C153.1 87.1491 155.727 84.5641 158.52 83.7331C161.313 82.9021 164.385 83.0691 167.149 82.1641C169.373 81.4361 170.908 76.1541 166.543 75.1841C153.59 72.3081 139.012 72.6291 125.554 79.3081C120.996 81.5701 115.632 87.3601 131.824 86.3721C133.858 86.2481 136.18 86.7961 137.052 88.3921C138.853 91.6871 133.047 95.3401 134.362 98.8131C135.385 101.519 139.781 101.667 142.85 100.613C145.92 99.5601 151.146 99.0051 155.784 99.1891Z" fill="#58606E"/>
<path d="M177.783 71.2555C193.43 76.0865 185.653 56.7525 171.527 54.8585C135.058 49.9675 112.575 62.6345 105.498 67.1985C96.2168 73.1825 100.007 86.7185 109.205 80.7885C136.46 63.2165 169.434 68.6775 177.783 71.2555Z" fill="#58606E"/>
<path d="M158.482 109.346C150.429 108.931 146.546 109.906 142.747 110.99C138.665 112.154 136.958 108.046 140.551 105.329C143.097 103.404 155.159 100.871 159.786 103.648C162.681 105.387 162.314 109.543 158.482 109.346Z" fill="#58606E"/>
<path d="M160.295 211.975C158.07 212.065 155.201 213.034 154.771 214.98C154.396 216.68 156.228 218.034 157.986 218.724C159.744 219.414 161.807 219.976 162.659 221.492C163.934 223.761 161.523 226.549 158.805 227.6C156.088 228.651 153.012 228.731 150.329 229.855C148.17 230.759 147.063 236.147 151.492 236.763C164.634 238.592 179.14 237.105 192.019 229.369C196.381 226.749 201.264 220.548 185.203 222.83C183.185 223.117 180.827 222.756 179.83 221.235C177.771 218.095 183.266 213.989 181.678 210.632C180.441 208.017 176.048 208.221 173.073 209.518C170.098 210.814 164.934 211.787 160.295 211.975Z" fill="#58606E"/>
<path d="M140.604 241.58C124.62 238.019 133.92 256.667 148.153 257.424C184.896 259.378 206.292 244.95 212.982 239.835C221.754 233.127 216.892 219.938 208.198 226.585C182.439 246.283 149.134 243.481 140.604 241.58Z" fill="#58606E"/>
<path d="M156.793 202.067C164.854 201.835 168.645 200.553 172.346 199.168C176.322 197.681 178.351 201.639 174.988 204.634C172.604 206.757 160.784 210.248 155.949 207.85C152.925 206.349 152.957 202.177 156.793 202.067Z" fill="#58606E"/>
<path d="M107.487 189.572C108.655 191.468 109.454 194.388 108.081 195.832C106.881 197.093 104.734 196.331 103.179 195.258C101.624 194.185 100.005 192.788 98.2717 192.929C95.6777 193.139 94.7127 196.697 95.3587 199.538C96.0047 202.379 97.6567 204.975 98.2247 207.828C98.6807 210.123 94.8307 214.052 91.8457 210.723C82.9857 200.846 76.1147 187.984 75.3347 172.98C75.0707 167.899 77.4847 160.384 84.5657 174.98C85.4557 176.813 87.0727 178.568 88.8907 178.545C92.6457 178.498 92.9807 171.647 96.6527 171.089C99.5117 170.654 101.798 174.411 102.385 177.603C102.972 180.794 105.051 185.621 107.487 189.572Z" fill="#A4AFBA"/>
<path d="M88.8189 216.176C99.6499 228.459 78.8279 229.308 71.2989 217.206C51.8629 185.963 54.5269 158.253 56.3689 153.045C59.0639 145.426 71.3099 144.325 68.5929 154.926C62.9679 176.875 83.0399 209.621 88.8189 216.176Z" fill="#A4AFBA"/>
<path d="M121.561 186.605C116.197 180.584 114.526 176.947 112.993 173.305C111.346 169.393 107.074 170.634 107.204 175.136C107.297 178.327 112.871 189.319 117.935 191.188C121.103 192.358 124.114 189.47 121.561 186.605Z" fill="#A4AFBA"/>
<path d="M102.333 214.019C102.456 211.725 100.187 210.865 99.6418 211.533C98.3008 213.177 97.2118 213.685 95.8068 214.054C94.5248 214.391 95.8858 216.202 97.1158 216.682C99.3238 217.545 102.244 215.679 102.333 214.019Z" fill="#A4AFBA"/>
<path d="M201.731 123.342C200.36 121.587 199.243 118.772 200.448 117.186C201.501 115.8 203.719 116.321 205.383 117.215C207.047 118.11 208.81 119.319 210.518 118.987C213.073 118.491 213.639 114.849 212.682 112.096C211.726 109.344 209.797 106.947 208.918 104.174C208.211 101.943 211.603 97.613 214.939 100.592C224.836 109.429 233.087 121.452 235.52 136.278C236.344 141.299 234.775 149.034 226.124 135.311C225.037 133.587 223.236 132.022 221.432 132.246C217.705 132.707 218.129 139.554 214.542 140.514C211.748 141.263 209.062 137.781 208.125 134.674C207.189 131.567 204.589 127 201.731 123.342Z" fill="#A4AFBA"/>
<path d="M217.344 94.8379C205.222 83.8269 225.823 80.6819 234.643 91.8779C257.413 120.782 257.828 148.616 256.573 153.996C254.736 161.866 242.687 164.314 244.216 153.477C247.382 131.04 223.813 100.713 217.344 94.8379Z" fill="#A4AFBA"/>
<path d="M203.334 98.8092C203.64 101.085 206.03 101.508 206.441 100.75C207.453 98.8852 208.428 98.1842 209.739 97.5592C210.936 96.9892 209.262 95.4632 207.965 95.2202C205.635 94.7852 203.113 97.1632 203.334 98.8092Z" fill="#A4AFBA"/>
<path d="M287.467 105.689C290.543 106.616 293.855 106.894 297.236 106.378C309.344 104.531 317.666 93.224 315.819 81.116C313.972 69.009 302.657 60.697 290.55 62.544C284.655 63.443 279.639 66.598 276.279 71.011L281.737 70.322L287.467 105.689Z" fill="#364154"/>
<path d="M288.401 104.04C290.056 104.286 292.412 104.93 295.475 104.462C306.44 102.789 314.001 92.7044 312.357 81.9314C310.714 71.1584 300.49 63.7864 289.525 65.4594C284.186 66.2734 279.638 69.0944 276.585 73.0304L281.528 72.4044L288.401 104.04Z" fill="#424E61"/>
<path d="M273.776 93.7732L271.215 98.3512L263.109 93.5942C262.321 93.1312 262.026 92.1342 262.446 91.3152L272.256 72.2762C272.513 71.7682 273.006 71.4252 273.568 71.3492L276.279 71.0122L281.737 70.3232L273.776 93.7732Z" fill="#424E61"/>
<path d="M274.89 92.6395L272.614 96.7054L265.412 92.4814C264.712 92.0704 264.45 91.1845 264.823 90.4575L273.541 73.5495C273.77 73.0985 274.207 72.7945 274.707 72.7265L277.116 72.4265L281.966 71.8145L274.89 92.6395Z" fill="#364154"/>
<path d="M308.611 82.3029L297.585 102.014C296.685 103.633 294.632 104.214 293.012 103.304L289.825 101.525L274.283 92.8259L273.312 92.2859C273.239 92.2489 273.165 92.2039 273.101 92.1559L273.099 92.1469C270.682 90.5849 271.979 87.7489 272.011 87.7059L281.739 70.3239L283.039 68.0039C283.939 66.3849 285.992 65.8039 287.612 66.7129L307.313 77.7319C308.941 78.6389 309.511 80.6839 308.611 82.3029Z" fill="#364154"/>
<path d="M302.801 80.7827L293.284 97.7967C292.507 99.1937 290.735 99.6947 289.337 98.9107L286.586 97.3747L276.479 91.7567L275.641 91.2907C275.578 91.2587 275.515 91.2197 275.459 91.1787L275.458 91.1707C273.371 89.8227 274.491 87.3747 274.519 87.3377L282.915 72.3357L284.037 70.3327C284.814 68.9357 286.586 68.4337 287.984 69.2187L301.681 76.8387C303.087 77.6207 303.578 79.3857 302.801 80.7827Z" fill="#424E61"/>
<path d="M289.824 101.525L287.467 105.689L282.265 114.895C281.813 115.69 280.815 115.976 280.019 115.524L278.201 114.511C278.188 114.427 269.687 109.644 269.537 109.667L269.182 109.473L268.733 109.226L267.425 108.489C266.631 108.046 266.353 107.037 266.796 106.243L267.03 105.834L271.202 98.3432L274.28 92.8262L289.824 101.525Z" fill="#364154"/>
<path d="M285.762 99.2518L279.316 110.999C278.956 111.633 278.161 111.86 277.527 111.5L269.62 107.083C268.988 106.73 268.766 105.927 269.119 105.294L269.305 104.969L275.506 93.5098L285.762 99.2518Z" fill="#424E61"/>
<path d="M278.201 114.512C278.201 114.512 276.556 117.45 273.948 122.101C267.253 134.049 254.231 157.287 246.736 170.628L238.186 165.843C249.179 146.104 269.537 109.668 269.537 109.668L278.201 114.512Z" fill="#BEC9D4"/>
<path d="M273.983 111.927C273.983 111.927 252.038 151.097 242.518 168.043L240.283 166.712C251.276 146.973 271.634 110.537 271.634 110.537L273.983 111.927Z" fill="#D8E0E8"/>
<path d="M249.34 173.844L246.445 178.931C245.574 178.175 244.49 177.394 243.329 176.682C240.679 175.04 237.61 173.721 235.583 173.657C234.631 173.621 233.529 174.296 232.588 175.959C232.58 175.97 232.564 175.991 232.558 176.011L222.429 194.276L212.53 188.855C211.665 188.385 211.371 187.273 211.857 186.386L221.401 169.176C221.896 168.288 222.982 167.95 223.838 168.422L230.414 172.046L234.139 165.321C234.542 164.581 235.477 164.314 236.209 164.728L238.186 165.841L246.736 170.626L248.754 171.762C249.496 172.176 249.754 173.112 249.34 173.844Z" fill="#424E61"/>
<path d="M248.166 175.976C247.501 177.02 245.597 180.206 245.597 180.206C244.841 179.587 243.368 178.476 242.358 177.896C240.053 176.558 237.378 175.488 235.606 175.451C234.773 175.428 233.805 175.995 232.97 177.377C232.963 177.386 232.949 177.404 232.943 177.421L223.95 192.606L215.332 188.194C214.579 187.811 214.33 186.894 214.762 186.156L223.236 171.848C223.676 171.11 224.628 170.822 225.373 171.206L230.863 174.035C230.994 174.102 231.156 174.056 231.231 173.929L234.404 168.565C234.762 167.95 235.582 167.722 236.219 168.059L245.382 172.861C245.382 172.861 249.035 174.61 248.166 175.976Z" fill="#364154"/>
<path d="M247.545 184.203L229.431 217.232C228.488 218.943 226.829 220.984 225.439 221.206C221.92 221.762 214.564 217.598 212.908 214.447C212.262 213.217 213.301 210.755 214.244 209.043L222.431 194.277L232.56 176.012C232.566 175.992 232.582 175.97 232.59 175.96C233.531 174.296 234.632 173.622 235.585 173.658C237.612 173.722 240.681 175.041 243.331 176.683C244.491 177.395 245.576 178.176 246.447 178.932C247.051 179.442 247.549 179.95 247.916 180.419C248.506 181.16 248.471 182.504 247.545 184.203Z" fill="#364154"/>
<path d="M244.949 186.223L229.594 214.22C228.794 215.671 227.389 217.4 226.21 217.588C223.227 218.059 216.992 214.53 215.588 211.859C215.04 210.817 215.921 208.729 216.721 207.278L223.66 194.762L232.245 179.28C232.25 179.263 232.264 179.245 232.27 179.236C233.068 177.826 234.001 177.254 234.809 177.285C236.527 177.339 239.128 178.457 241.374 179.849C242.357 180.453 243.277 181.114 244.015 181.755C244.527 182.188 244.949 182.617 245.261 183.015C245.763 183.644 245.734 184.782 244.949 186.223Z" fill="#424E61"/>
</svg>
