<svg xmlns="http://www.w3.org/2000/svg" fill="none" viewBox="0 0 24 24" id="Instrument-Saxophone-Play--Streamline-Ultimate.svg" height="24" width="24"><desc>Instrument Saxophone Play Streamline Icon: https://streamlinehq.com</desc><path fill="#fff9bf" d="M19.694 2.229a2.608 2.608 0 0 0 -1.414 3.408l4.654 11.253c1.1 2.663 -0.818 5.986 -3.631 7.149 -2.813 1.163 -6.519 0.168 -7.621 -2.5l-1.163 -2.813a1.307 1.307 0 0 0 -1 -0.79 0.5 0.5 0 0 1 -0.384 -0.686l2.753 -6.637a0.5 0.5 0 0 1 0.924 0l2.863 6.922a1.305 1.305 0 0 0 2.412 -1l-2.828 -6.824c-1.1 -2.663 1.772 -6.381 4.435 -7.482L20.9 1.73Z" stroke-width="1"></path><path fill="#ffef5e" d="M19.3 24.04c-2.81 1.16 -6.52 0.17 -7.62 -2.5l-1.16 -2.81a1.32 1.32 0 0 0 -1 -0.79 0.5 0.5 0 0 1 -0.36 -0.25 0.486 0.486 0 0 1 -0.03 -0.44l1.19 -2.86c0.085 0.094 0.153 0.202 0.2 0.32l1.16 2.81c1.1 2.67 4.81 3.66 7.62 2.5a6.634 6.634 0 0 0 3.5 -3.45l0.13 0.32c1.11 2.66 -0.81 5.99 -3.63 7.15Z" stroke-width="1"></path><path stroke="#191919" stroke-linecap="round" stroke-linejoin="round" d="M19.694 2.229a2.608 2.608 0 0 0 -1.414 3.408l4.654 11.253c1.1 2.663 -0.818 5.986 -3.631 7.149 -2.813 1.163 -6.519 0.168 -7.621 -2.5l-1.163 -2.813a1.307 1.307 0 0 0 -1 -0.79 0.5 0.5 0 0 1 -0.384 -0.686l2.753 -6.637a0.5 0.5 0 0 1 0.924 0l2.863 6.922a1.305 1.305 0 0 0 2.412 -1l-2.828 -6.824c-1.1 -2.663 1.772 -6.381 4.435 -7.482Zm0 0L20.9 1.73" stroke-width="1"></path><path stroke="#191919" stroke-linecap="round" stroke-linejoin="round" d="m17.253 10.768 -1.329 0.55" stroke-width="1"></path><path stroke="#191919" stroke-linecap="round" stroke-linejoin="round" d="m17.918 12.376 -1.329 0.55" stroke-width="1"></path><path stroke="#191919" stroke-linecap="round" stroke-linejoin="round" d="m18.583 13.983 -1.33 0.55" stroke-width="1"></path><path fill="#808080" d="M2 9.093a1.25 1.25 0 1 0 0 -2.5 1.25 1.25 0 0 0 0 2.5Z" stroke-width="1"></path><path fill="#808080" d="M7 7.593a1.25 1.25 0 1 0 0 -2.5 1.25 1.25 0 0 0 0 2.5Z" stroke-width="1"></path><path stroke="#191919" stroke-linecap="round" stroke-linejoin="round" d="M3.25 7.843V3.314a1 1 0 0 1 0.684 -0.95l3 -0.832a1 1 0 0 1 1.316 0.948v3.863" stroke-width="1"></path><path fill="#808080" d="M6 15.98a1.25 1.25 0 1 0 0 -2.5 1.25 1.25 0 0 0 0 2.5Z" stroke-width="1"></path><path stroke="#191919" stroke-linecap="round" stroke-linejoin="round" d="M7.25 14.73v-4.25" stroke-width="1"></path><path stroke="#191919" stroke-linecap="round" stroke-linejoin="round" d="M2 9.093a1.25 1.25 0 1 0 0 -2.5 1.25 1.25 0 0 0 0 2.5Z" stroke-width="1"></path><path stroke="#191919" stroke-linecap="round" stroke-linejoin="round" d="M7 7.593a1.25 1.25 0 1 0 0 -2.5 1.25 1.25 0 0 0 0 2.5Z" stroke-width="1"></path><path stroke="#191919" stroke-linecap="round" stroke-linejoin="round" d="M6 15.98a1.25 1.25 0 1 0 0 -2.5 1.25 1.25 0 0 0 0 2.5Z" stroke-width="1"></path></svg>