<svg width="106" height="160" viewBox="0 0 106 160" fill="none" xmlns="http://www.w3.org/2000/svg">
<path d="M29.4418 116.28C26.3689 115.343 23.0578 115.054 19.6751 115.558C7.56106 117.365 -0.798512 128.644 1.0082 140.758C2.81491 152.872 14.1022 161.221 26.2153 159.414C32.1132 158.535 37.1397 155.397 40.5144 150.995L35.0541 151.666L29.4418 116.28Z" fill="#364154"/>
<path d="M28.5022 117.926C26.848 117.674 24.4941 117.023 21.4296 117.48C10.4591 119.117 2.86459 129.177 4.47274 139.955C6.0799 150.733 16.2793 158.139 27.2498 156.503C32.5915 155.707 37.1489 152.901 40.2149 148.975L35.2699 149.585L28.5022 117.926Z" fill="#424E61"/>
<path d="M43.0926 128.241L45.6688 123.672L53.759 128.456C54.5454 128.921 54.8371 129.919 54.4144 130.737L44.5411 149.743C44.2824 150.25 43.7883 150.592 43.226 150.666L40.5139 150.994L35.0537 151.665L43.0926 128.241Z" fill="#424E61"/>
<path d="M41.9747 129.372L44.2642 125.313L51.4522 129.561C52.1508 129.974 52.4098 130.861 52.0344 131.587L43.2602 148.466C43.0297 148.916 42.5917 149.219 42.0915 149.285L39.6815 149.577L34.8295 150.173L41.9747 129.372Z" fill="#364154"/>
<path d="M8.22007 139.595L19.3116 119.921C20.217 118.305 22.2719 117.731 23.8888 118.646L27.0699 120.436L42.5829 129.186L43.5521 129.73C43.6249 129.767 43.6988 129.812 43.7626 129.86L43.7646 129.869C46.1764 131.439 44.87 134.271 44.8379 134.314L35.0521 151.663L33.7444 153.979C32.839 155.595 30.7841 156.169 29.1671 155.255L9.50286 144.17C7.87789 143.258 7.31469 141.211 8.22007 139.595Z" fill="#364154"/>
<path d="M14.0251 141.134L23.5987 124.152C24.3803 122.758 26.154 122.263 27.5493 123.051L30.2952 124.596L40.3835 130.248L41.2199 130.717C41.2828 130.749 41.3457 130.788 41.4016 130.829L41.4025 130.837C43.485 132.192 42.3569 134.637 42.3288 134.673L33.8829 149.647L32.7543 151.647C31.9726 153.041 30.1989 153.537 28.8036 152.748L15.132 145.082C13.7286 144.295 13.2435 142.529 14.0251 141.134Z" fill="#424E61"/>
<path d="M27.0708 120.436L29.4416 116.28L34.6743 107.091C35.1289 106.297 36.1278 106.015 36.9223 106.469L38.737 107.488C38.7497 107.572 47.2347 112.384 47.3848 112.361L47.7391 112.556L48.1873 112.805L49.4929 113.546C50.2854 113.992 50.56 115.002 50.1144 115.794L49.879 116.202L45.6821 123.68L42.5858 129.186L27.0708 120.436Z" fill="#364154"/>
<path d="M31.125 122.722L37.6101 110.997C37.9722 110.364 38.7679 110.139 39.4007 110.502L47.293 114.945C47.9238 115.3 48.1432 116.104 47.7881 116.736L47.601 117.06L41.3619 128.498L31.125 122.722Z" fill="#424E61"/>
<path d="M38.7367 107.488C38.7367 107.488 40.3915 104.555 43.0149 99.9129C49.7496 87.9873 62.8489 64.7927 70.3882 51.4767L78.9222 56.2902C67.8636 75.9925 47.3845 112.361 47.3845 112.361L38.7367 107.488Z" fill="#BEC9D4"/>
<path d="M42.9459 110.087C42.9459 110.087 65.0211 70.99 74.5974 54.0757L76.828 55.4142C65.7694 75.1165 45.2903 111.485 45.2903 111.485L42.9459 110.087Z" fill="#D8E0E8"/>
<path d="M67.7953 48.252L70.7072 43.1747C71.5757 43.9336 72.6571 44.7182 73.8157 45.434C76.4602 47.0848 79.5248 48.414 81.5516 48.4848C82.5035 48.5239 83.6077 47.8526 84.5542 46.1927C84.5623 46.1818 84.5783 46.1608 84.5844 46.1409L94.7741 27.9097L104.655 33.3635C105.518 33.8364 105.809 34.9494 105.32 35.8348L95.7186 53.0129C95.2206 53.8993 94.1335 54.2337 93.2791 53.7588L86.7152 50.113L82.9678 56.8255C82.5624 57.5642 81.6265 57.8281 80.8959 57.4116L78.9226 56.2921L70.3886 51.4787L68.3743 50.3359C67.6337 49.9195 67.3788 48.9826 67.7953 48.252Z" fill="#424E61"/>
<path d="M68.9764 46.124C69.6449 45.0822 71.5595 41.9025 71.5595 41.9025C72.3134 42.524 73.7827 43.6399 74.7908 44.2233C77.0913 45.569 79.7627 46.6479 81.5346 46.6907C82.3675 46.7165 83.3374 46.1527 84.177 44.7735C84.184 44.7645 84.1981 44.7466 84.2041 44.7296L93.2476 29.5746L101.851 34.0153C102.603 34.4008 102.849 35.3186 102.414 36.0551L93.8926 50.3349C93.4501 51.0714 92.4971 51.3562 91.7534 50.9698L86.2729 48.1225C86.1421 48.0551 85.9799 48.1005 85.9045 48.2273L82.7137 53.5807C82.3537 54.1945 81.5329 54.4198 80.897 54.0807L71.75 49.2482C71.75 49.2482 68.1029 47.4871 68.9764 46.124Z" fill="#364154"/>
<path d="M69.6243 37.8993L87.8481 4.93078C88.7968 3.22292 90.4626 1.18745 91.8533 0.970079C95.3741 0.425788 102.716 4.61421 104.362 7.7707C105.004 9.00284 103.956 11.4614 103.008 13.1702L94.7717 27.9089L84.582 46.1401C84.5759 46.1601 84.5599 46.1821 84.5518 46.192C83.6053 47.8529 82.5021 48.5232 81.5492 48.4841C79.5224 48.4133 76.4578 47.0841 73.8133 45.4333C72.6557 44.7174 71.5733 43.9328 70.7048 43.1739C70.1025 42.6619 69.6062 42.1523 69.2407 41.6821C68.6532 40.9391 68.6927 39.5952 69.6243 37.8993Z" fill="#364154"/>
<path d="M72.2271 35.8884L87.6752 7.94264C88.48 6.49431 89.8907 4.76998 91.0704 4.5859C94.0549 4.12483 100.278 7.67456 101.673 10.3502C102.218 11.394 101.33 13.4791 100.525 14.9274L93.5444 27.4203L84.9079 42.8736C84.9029 42.8906 84.8888 42.9086 84.8828 42.9175C84.0801 44.3249 83.1452 44.8938 82.3373 44.8601C80.6195 44.8004 78.0222 43.6737 75.7809 42.2742C74.7999 41.667 73.8821 41.0029 73.1462 40.3595C72.6357 39.9248 72.2151 39.4944 71.9044 39.0953C71.4045 38.4647 71.4373 37.3268 72.2271 35.8884Z" fill="#424E61"/>
</svg>
