<svg width="314" height="314" viewBox="0 0 314 314" fill="none" xmlns="http://www.w3.org/2000/svg">
<path d="M79.0361 78.8467C35.7595 121.836 35.5268 191.769 78.5165 235.046C121.506 278.322 191.439 278.555 234.715 235.565C277.992 192.576 278.225 122.643 235.235 79.3663C192.245 36.0897 122.313 35.857 79.0361 78.8467Z" fill="#58606E"/>
<path d="M82.0175 81.8478C40.3986 123.191 40.1749 190.444 81.5177 232.063C122.861 273.682 190.114 273.906 231.733 232.563C273.352 191.22 273.576 123.966 232.233 82.3475C190.89 40.7286 123.636 40.5049 82.0175 81.8478Z" fill="#697485"/>
<path d="M121.173 182.677C107.522 163.544 112.44 136.63 132.157 122.563C151.873 108.495 178.923 112.601 192.574 131.734C206.224 150.866 201.307 177.78 181.591 191.848C161.873 205.915 134.823 201.809 121.173 182.677Z" fill="#58606E"/>
<path d="M126.594 130.644C111.927 147.374 113.599 172.825 130.329 187.491C147.058 202.158 172.509 200.486 187.175 183.757C201.842 167.027 200.17 141.576 183.441 126.91C166.712 112.243 141.26 113.915 126.594 130.644Z" fill="#A982B0"/>
<path d="M130.601 175.314C120.367 160.971 123.698 141.047 138.043 130.814C152.387 120.579 172.31 123.912 182.544 138.255C192.777 152.599 189.446 172.522 175.102 182.756C160.76 192.989 140.836 189.657 130.601 175.314Z" fill="#CCA5CB"/>
<path d="M154.27 159.063C153.244 157.625 153.577 155.628 155.016 154.602C156.454 153.576 158.451 153.91 159.477 155.348C160.503 156.786 160.169 158.783 158.731 159.81C157.293 160.835 155.296 160.5 154.27 159.063Z" fill="#D8E0E8"/>
<path d="M157.102 214.217C154.877 214.121 151.937 214.848 151.347 216.751C150.83 218.414 152.544 219.916 154.239 220.75C155.934 221.585 157.942 222.317 158.665 223.899C159.746 226.266 157.111 228.843 154.315 229.664C151.519 230.486 148.448 230.309 145.681 231.205C143.454 231.925 141.902 237.202 146.263 238.187C159.207 241.106 173.786 240.833 187.266 234.199C191.831 231.952 197.215 226.18 181.019 227.114C178.985 227.231 176.665 226.676 175.798 225.077C174.008 221.776 179.826 218.142 178.523 214.665C177.509 211.955 173.113 211.793 170.041 212.836C166.967 213.879 161.74 214.417 157.102 214.217Z" fill="#58606E"/>
<path d="M135.01 242.078C119.379 237.195 127.092 256.555 141.212 258.496C177.664 263.508 200.189 250.916 207.281 246.376C216.582 240.422 212.837 226.874 203.62 232.773C176.306 250.255 143.351 244.684 135.01 242.078Z" fill="#58606E"/>
<path d="M154.438 204.053C162.489 204.494 166.376 203.532 170.178 202.461C174.264 201.311 175.957 205.424 172.355 208.129C169.803 210.046 157.733 212.539 153.115 209.746C150.226 207.998 150.606 203.843 154.438 204.053Z" fill="#58606E"/>
<path d="M152.966 101.418C155.192 101.336 158.064 100.376 158.5 98.4315C158.881 96.7328 157.053 95.3727 155.298 94.6768C153.542 93.981 151.481 93.4121 150.634 91.8933C149.367 89.6201 151.787 86.8401 154.508 85.7982C157.229 84.7562 160.305 84.6864 162.992 83.5714C165.154 82.6745 166.279 77.2903 161.852 76.6595C148.716 74.7868 134.205 76.2256 121.3 83.9187C116.93 86.5241 112.026 92.7089 128.095 90.4803C130.114 90.2 132.47 90.5689 133.462 92.0932C135.511 95.24 130.002 99.3277 131.579 102.69C132.807 105.309 137.201 105.12 140.18 103.833C143.16 102.546 148.327 101.591 152.966 101.418Z" fill="#58606E"/>
<path d="M172.756 71.8776C188.728 75.4918 179.49 56.8129 165.26 56.0086C128.523 53.9324 107.079 68.2891 100.372 73.3818C91.5781 80.0606 96.3962 93.2657 105.112 86.6477C130.937 67.0355 164.232 69.9483 172.756 71.8776Z" fill="#58606E"/>
<path d="M156.435 111.337C148.374 111.542 144.578 112.812 140.873 114.184C136.892 115.658 134.876 111.693 138.249 108.71C140.64 106.595 152.472 103.143 157.299 105.557C160.318 107.068 160.272 111.24 156.435 111.337Z" fill="#58606E"/>
<path d="M205.699 123.997C204.538 122.097 203.748 119.174 205.126 117.735C206.33 116.478 208.475 117.247 210.026 118.325C211.578 119.403 213.192 120.806 214.925 120.67C217.52 120.469 218.497 116.914 217.86 114.071C217.224 111.228 215.58 108.627 215.022 105.772C214.574 103.475 218.437 99.559 221.41 102.898C230.238 112.804 237.066 125.689 237.796 140.696C238.043 145.777 235.604 153.284 228.572 138.665C227.688 136.829 226.077 135.069 224.258 135.086C220.503 135.12 220.146 141.97 216.472 142.516C213.611 142.941 211.338 139.177 210.761 135.983C210.185 132.79 208.122 127.956 205.699 123.997Z" fill="#A4AFBA"/>
<path d="M224.456 97.4549C213.666 85.1359 234.49 84.3562 241.979 96.4831C261.311 127.791 258.555 155.492 256.696 160.693C253.975 168.303 241.726 169.364 244.478 158.772C250.176 136.842 230.213 104.029 224.456 97.4549Z" fill="#A4AFBA"/>
<path d="M191.616 126.916C196.959 132.955 198.618 136.598 200.139 140.245C201.773 144.162 206.049 142.935 205.934 138.433C205.852 135.242 200.315 124.231 195.257 122.345C192.093 121.165 189.072 124.043 191.616 126.916Z" fill="#A4AFBA"/>
<path d="M210.935 99.5665C210.804 101.86 213.07 102.728 213.617 102.061C214.964 100.422 216.054 99.9175 217.461 99.5532C218.744 99.2205 217.389 97.4049 216.16 96.9209C213.955 96.0505 211.029 97.9068 210.935 99.5665Z" fill="#A4AFBA"/>
<path d="M111.236 189.911C112.601 191.671 113.709 194.49 112.498 196.072C111.441 197.454 109.224 196.926 107.563 196.026C105.902 195.126 104.143 193.911 102.434 194.237C99.8777 194.725 99.2996 198.365 100.247 201.121C101.194 203.876 103.115 206.279 103.985 209.055C104.685 211.289 101.278 215.607 97.9522 212.617C88.0846 203.747 79.8737 191.697 77.49 176.863C76.6827 171.839 78.2774 164.11 86.8827 177.861C87.964 179.589 89.7598 181.16 91.5645 180.942C95.293 180.493 94.8918 173.645 98.482 172.697C101.278 171.957 103.953 175.448 104.88 178.558C105.805 181.668 108.39 186.244 111.236 189.911Z" fill="#A4AFBA"/>
<path d="M95.5279 218.364C107.613 229.415 87.0019 232.491 78.2192 221.266C55.5454 192.286 55.223 164.451 56.4959 159.075C58.3591 151.212 70.4162 148.804 68.8511 159.636C65.6105 182.062 89.0785 212.467 95.5279 218.364Z" fill="#A4AFBA"/>
<path d="M109.551 214.439C109.253 212.162 106.864 211.731 106.451 212.488C105.433 214.35 104.455 215.047 103.142 215.668C101.943 216.234 103.612 217.766 104.908 218.013C107.237 218.456 109.767 216.086 109.551 214.439Z" fill="#A4AFBA"/>
</svg>
